<svg width="54" height="54" viewBox="0 0 54 54" fill="none" xmlns="http://www.w3.org/2000/svg">
<path d="M26.9 0C24.5 5.9 23.1 9.70002 20.4 15.4C22.4714 17.6487 24.7855 19.661 27.3 21.4C24.5159 20.3517 21.9166 18.8664 19.6 17C16.2 24.1 10.9 34.2 0 53.7C8.5 48.8 15.1 45.8 21.2 44.6C20.9135 43.422 20.7791 42.2122 20.8 41V40.7C20.9 35.3 23.8 31.1 27.1 31.3C30.4 31.5 33.1 36.2 32.9 41.7C32.9044 42.6746 32.8038 43.6469 32.6 44.6C38.7 45.8 45.2 48.8 53.6 53.6C51.9 50.6 50.5 47.8 49.1 45.2C46.2734 42.6944 43.1501 40.5449 39.8 38.8C42.3986 39.3886 44.8934 40.3663 47.2 41.7C33 15.1 31.8 11.5 26.9 0Z" fill="#FF00FF"/>
</svg>
