<svg width="56" height="55" viewBox="0 0 56 55" fill="none" xmlns="http://www.w3.org/2000/svg">
<path d="M27.6 0.799988C21.0721 0.805727 14.7589 3.13264 9.78876 7.36487C4.81863 11.5971 1.51546 17.4588 0.469574 23.9024C-0.57631 30.346 0.70326 36.9516 4.07961 42.5386C7.45595 48.1255 12.709 52.3298 18.9 54.4C20.3 54.6 20.8 53.8 20.8 53.1V48C13.9 49.3 12.1 46.3 11.5 44.8C10.867 43.3087 9.9106 41.9767 8.7 40.9C7.7 40.4 6.4 39.1 8.7 39.1C11 39.1 12.4 41.1 12.9 41.9C15.4 46.1 19.3 44.9 20.9 44.2C21.0117 42.7837 21.6547 41.4621 22.7 40.5C16.6 39.8 10.2 37.4 10.2 26.9C10.1736 24.1697 11.1728 21.5289 13 19.5C12.1656 17.1174 12.2729 14.5061 13.3 12.2C13.3 12.2 15.6 11.5 20.9 15C25.4217 13.8 30.1783 13.8 34.7 15C40 11.4 42.3 12.2 42.3 12.2C43.3271 14.5061 43.4344 17.1174 42.6 19.5C44.4681 21.5038 45.4737 24.1615 45.4 26.9C45.4 37.5 39 39.8 32.8 40.5C33.4632 41.1646 33.9761 41.9638 34.3039 42.8437C34.6316 43.7235 34.7667 44.6634 34.7 45.6V53.2C34.7 53.9 35.2 54.8 36.6 54.5C42.0605 52.6604 46.8043 49.1504 50.1602 44.4665C53.5161 39.7826 55.3142 34.162 55.3 28.4C55.2448 21.0798 52.3055 14.0766 47.1199 8.90961C41.9342 3.74266 34.9204 0.828735 27.6 0.799988Z" fill="#FF00FF"/>
</svg>
